<svg width="12" height="10" viewBox="0 0 12 10" fill="none" xmlns="http://www.w3.org/2000/svg">
<path d="M6.28777 4.99292L5.00449 6.18806C4.29458 6.84921 4.29458 7.92568 5.00449 8.58683C5.71439 9.24797 6.87026 9.24797 7.58016 8.58683L9.60066 6.70511C10.2825 6.06829 10.6654 5.20566 10.6654 4.30635C10.6654 3.40704 10.2825 2.54442 9.60066 1.90759C8.91686 1.2726 7.99062 0.916016 7.02498 0.916016C6.05934 0.916016 5.1331 1.2726 4.44931 1.90759L2.24678 3.95883C1.95679 4.22867 1.72674 4.5491 1.56978 4.90179C1.41282 5.25448 1.33203 5.63252 1.33203 6.0143C1.33203 6.39609 1.41282 6.77413 1.56978 7.12682C1.72674 7.47951 1.95679 7.79993 2.24678 8.06978" stroke="#282828" stroke-opacity="0.7" stroke-width="1.5" stroke-linecap="round" stroke-linejoin="round"/>
</svg>
