<svg width="18" height="16" viewBox="0 0 18 16" fill="none" xmlns="http://www.w3.org/2000/svg">
<path d="M9.49556 7.98898L7.29564 10.0378C6.07866 11.1712 6.07866 13.0166 7.29564 14.15C8.51261 15.2833 10.4941 15.2833 11.7111 14.15L15.1748 10.9242C16.3436 9.83246 17 8.35368 17 6.812C17 5.27033 16.3436 3.79155 15.1748 2.69984C14.0026 1.61128 12.4147 1 10.7593 1C9.10396 1 7.51612 1.61128 6.3439 2.69984L2.56815 6.21625C2.07101 6.67884 1.67664 7.22814 1.40757 7.83275C1.13849 8.43737 1 9.08544 1 9.73992C1 10.3944 1.13849 11.0425 1.40757 11.6471C1.67664 12.2517 2.07101 12.801 2.56815 13.2636" stroke="#282828" stroke-opacity="0.7" stroke-width="1.5" stroke-linecap="round" stroke-linejoin="round"/>
</svg>
