<svg width="51" height="23" viewBox="0 0 51 23" fill="none" xmlns="http://www.w3.org/2000/svg">
<path d="M48.968 7.95249V2.64307C48.968 1.39765 47.9629 0.392578 46.7175 0.392578H4.83207C3.58665 0.392578 2.55973 1.39765 2.55973 2.64307V7.95249C1.55465 8.25838 0.855469 9.19791 0.855469 10.2467V22.7009H1.72945V16.6486H49.7982V22.7009H50.6722V10.2467C50.6722 9.19791 49.973 8.25838 48.968 7.95249ZM4.83207 1.26656H46.7175C47.4822 1.26656 48.094 1.87834 48.094 2.64307V7.75585H3.4337V2.64307C3.4337 1.87834 4.06734 1.26656 4.83207 1.26656ZM49.7982 10.2467V15.7746H1.72945V10.2467C1.72945 9.4164 2.40678 8.71722 3.25891 8.71722H48.2688C49.1209 8.71722 49.7982 9.4164 49.7982 10.2467Z" fill="#282828"/>
</svg>
