<svg width="13" height="15" viewBox="0 0 13 15" fill="none" xmlns="http://www.w3.org/2000/svg">
<path d="M12.125 3.7375C10.0438 3.53125 7.95 3.425 5.8625 3.425C4.625 3.425 3.3875 3.4875 2.15 3.6125L0.875 3.7375M4.3125 3.10625L4.45 2.2875C4.55 1.69375 4.625 1.25 5.68125 1.25H7.31875C8.375 1.25 8.45625 1.71875 8.55 2.29375L8.6875 3.10625M10.7813 5.7125L10.375 12.0062C10.3063 12.9875 10.25 13.75 8.50625 13.75H4.49375C2.75 13.75 2.69375 12.9875 2.625 12.0062L2.21875 5.7125M5.45625 10.3125H7.5375M4.9375 7.8125H8.0625" stroke="#282828" stroke-linecap="round" stroke-linejoin="round"/>
</svg>
