<svg width="24" height="25" viewBox="0 0 24 25" fill="none" xmlns="http://www.w3.org/2000/svg">
<path d="M11 2.5625H9C4 2.5625 2 4.5625 2 9.5625V15.5625C2 20.5625 4 22.5625 9 22.5625H15C20 22.5625 22 20.5625 22 15.5625V13.5625" stroke="#E76A6A" stroke-width="1.5" stroke-linecap="round" stroke-linejoin="round"/>
<path d="M16.0399 3.58373L8.15988 11.4637C7.85988 11.7637 7.55988 12.3537 7.49988 12.7837L7.06988 15.7937C6.90988 16.8837 7.67988 17.6437 8.76988 17.4937L11.7799 17.0637C12.1999 17.0037 12.7899 16.7037 13.0999 16.4037L20.9799 8.52373C22.3399 7.16373 22.9799 5.58373 20.9799 3.58373C18.9799 1.58373 17.3999 2.22373 16.0399 3.58373Z" stroke="#E76A6A" stroke-width="1.5" stroke-miterlimit="10" stroke-linecap="round" stroke-linejoin="round"/>
<path d="M14.9102 4.71094C15.5802 7.10094 17.4502 8.97094 19.8502 9.65094" stroke="#E76A6A" stroke-width="1.5" stroke-miterlimit="10" stroke-linecap="round" stroke-linejoin="round"/>
</svg>
