<svg width="20" height="20" viewBox="0 0 20 20" fill="none" xmlns="http://www.w3.org/2000/svg">
<path d="M9.16602 1.66602H7.49935C3.33268 1.66602 1.66602 3.33268 1.66602 7.49935V12.4993C1.66602 16.666 3.33268 18.3327 7.49935 18.3327H12.4993C16.666 18.3327 18.3327 16.666 18.3327 12.4993V10.8327" stroke="#282828" stroke-width="1.5" stroke-linecap="round" stroke-linejoin="round"/>
<path d="M13.3675 2.51834L6.80088 9.08501C6.55088 9.33501 6.30088 9.82668 6.25088 10.185L5.89254 12.6933C5.75921 13.6017 6.40088 14.235 7.30921 14.11L9.81754 13.7517C10.1675 13.7017 10.6592 13.4517 10.9175 13.2017L17.4842 6.63501C18.6175 5.50168 19.1509 4.18501 17.4842 2.51834C15.8175 0.851675 14.5009 1.38501 13.3675 2.51834Z" stroke="#282828" stroke-width="1.5" stroke-miterlimit="10" stroke-linecap="round" stroke-linejoin="round"/>
<path d="M12.4258 3.45703C12.9841 5.4487 14.5424 7.00703 16.5424 7.5737" stroke="#282828" stroke-width="1.5" stroke-miterlimit="10" stroke-linecap="round" stroke-linejoin="round"/>
</svg>
