<svg width="16" height="36" viewBox="0 0 16 36" fill="none" xmlns="http://www.w3.org/2000/svg">
<path d="M15.3452 26.312L13.481 9.88682H10.6402C12.2381 9.00374 13.3034 7.3259 13.3034 5.47144C13.3034 2.6456 10.9953 0.349609 8.15451 0.349609C5.31372 0.349609 3.00559 2.6456 3.00559 5.47144C3.00559 7.41421 4.07088 9.00374 5.66882 9.88682H2.73926L0.875 26.312H3.89333L4.95863 35.3194H11.3504L12.4157 26.312H15.3452ZM10.729 34.7012H5.49127L4.51475 26.4003H11.6167L10.729 34.7012ZM3.62701 5.47144C3.62701 2.99883 5.66882 0.967762 8.15451 0.967762C10.6402 0.967762 12.682 2.99883 12.682 5.47144C12.682 7.85574 10.729 9.88682 8.33206 9.88682H7.97696C5.58005 9.88682 3.62701 7.85574 3.62701 5.47144ZM3.36069 10.5933H7.97696C8.06574 10.5933 8.06573 10.5933 8.15451 10.5933C8.24328 10.5933 8.24328 10.5933 8.33206 10.5933H12.9483L14.7238 25.6939H1.5852L3.36069 10.5933Z" fill="#282828"/>
</svg>
