<svg width="22" height="23" viewBox="0 0 22 23" fill="none" xmlns="http://www.w3.org/2000/svg">
<path d="M13.6 12.1429V14.8729C13.6 17.1529 12.69 18.0629 10.41 18.0629H7.69C5.42 18.0629 4.5 17.1529 4.5 14.8729V12.1429C4.5 9.87289 5.41 8.96289 7.69 8.96289H10.42C12.69 8.96289 13.6 9.87289 13.6 12.1429Z" stroke="#E76A6A" stroke-width="1.5" stroke-linecap="round" stroke-linejoin="round"/>
<path d="M17.5004 8.2425V10.9725C17.5004 13.2525 16.5904 14.1625 14.3104 14.1625H13.6004V12.1425C13.6004 9.8725 12.6904 8.9625 10.4104 8.9625H8.40039V8.2425C8.40039 5.9625 9.31039 5.0625 11.5904 5.0625H14.3204C16.5904 5.0625 17.5004 5.9725 17.5004 8.2425Z" stroke="#E76A6A" stroke-width="1.5" stroke-linecap="round" stroke-linejoin="round"/>
<path d="M21 14.5625C21 18.4325 17.87 21.5625 14 21.5625L15.05 19.8125" stroke="#E76A6A" stroke-width="1.5" stroke-linecap="round" stroke-linejoin="round"/>
<path d="M1 8.5625C1 4.6925 4.13 1.5625 8 1.5625L6.95 3.3125" stroke="#E76A6A" stroke-width="1.5" stroke-linecap="round" stroke-linejoin="round"/>
</svg>
