<svg width="39" height="28" viewBox="0 0 39 28" fill="none" xmlns="http://www.w3.org/2000/svg">
<path d="M38.4132 21.9417C38.3297 11.9239 30.3989 3.74264 20.4645 3.32522C20.8819 3.07478 21.1324 2.57388 21.1324 2.07299C21.1324 1.23817 20.4645 0.570312 19.6297 0.570312C18.7949 0.570312 18.127 1.23817 18.127 2.07299C18.127 2.57388 18.3775 3.07478 18.7949 3.32522C8.94398 3.74264 1.01317 11.9239 0.929688 21.9417V22.3592H38.4132V21.9417ZM18.6279 2.07299C18.6279 1.48862 19.1288 0.987723 19.7132 0.987723C20.2976 0.987723 20.7984 1.48862 20.7984 2.07299C20.7984 2.65737 20.2976 3.15826 19.7132 3.15826C19.1288 3.15826 18.6279 2.65737 18.6279 2.07299ZM1.76451 21.5243C2.01496 11.9239 10.0292 4.16005 19.7132 4.16005C29.3971 4.16005 37.3279 11.9239 37.6618 21.5243H1.76451Z" fill="#282828"/>
<path d="M1.51367 27.7029H37.9119V23.4453H1.51367V27.7029ZM2.34849 24.2801H37.0771V26.8681H2.34849V24.2801Z" fill="#282828"/>
</svg>
