<svg width="42" height="30" viewBox="0 0 42 30" fill="none" xmlns="http://www.w3.org/2000/svg">
<path d="M0.355469 0.380859V25.9396H41.3545V0.380859H0.355469ZM40.3767 25.0079C40.2486 25.1229 40.1089 25.1919 39.9576 25.2379C39.8063 25.2724 39.6549 25.2839 39.5152 25.2839C29.5623 25.2724 19.4464 25.2724 9.66814 25.2724H2.20636C2.06667 25.2724 1.92698 25.2609 1.78729 25.2609C1.71745 25.2609 1.65924 25.2494 1.57776 25.2494L1.1354 25.2264V1.14003H40.5862L40.6095 1.57713C40.6095 1.64614 40.6211 1.71516 40.6211 1.78417C40.6328 1.93371 40.6444 2.08324 40.6444 2.24428C40.6444 4.19972 40.6444 6.15515 40.6444 8.11059C40.6444 13.3673 40.6444 18.808 40.656 24.1452C40.656 24.4443 40.6211 24.7663 40.3767 25.0079Z" fill="#282828"/>
<path d="M0.355469 0.380859V25.9396H41.3545V0.380859H0.355469ZM40.3767 25.0079C40.2486 25.1229 40.1089 25.1919 39.9576 25.2379C39.8063 25.2724 39.6549 25.2839 39.5152 25.2839C29.5623 25.2724 19.4464 25.2724 9.66814 25.2724H2.20636C2.06667 25.2724 1.92698 25.2609 1.78729 25.2609C1.71745 25.2609 1.65924 25.2494 1.57776 25.2494L1.1354 25.2264V1.14003H40.5862L40.6095 1.57713C40.6095 1.64614 40.6211 1.71516 40.6211 1.78417C40.6328 1.93371 40.6444 2.08324 40.6444 2.24428C40.6444 4.19972 40.6444 6.15515 40.6444 8.11059C40.6444 13.3673 40.6444 18.808 40.656 24.1452C40.656 24.4443 40.6211 24.7663 40.3767 25.0079Z" fill="#282828"/>
<path d="M32.9954 28.954C32.9954 29.1151 32.9488 29.2646 32.6461 29.3106C32.5996 29.3221 32.553 29.3221 32.4832 29.3221C32.4366 29.3221 32.39 29.3221 32.3551 29.3221C32.2969 29.3221 32.2503 29.3221 32.2038 29.3221H9.45759C9.39939 29.3221 9.34118 29.3221 9.28298 29.3221C9.23642 29.3221 9.18985 29.3221 9.14329 29.3221C9.08509 29.3221 9.03852 29.3221 9.0036 29.3106C8.71258 29.2646 8.66602 29.1496 8.66602 28.954C8.66602 28.7125 8.7475 28.6319 8.98032 28.5974C9.0618 28.5859 9.15493 28.5859 9.23642 28.5859H9.44595C13.2409 28.5859 17.0241 28.5859 20.819 28.5859C24.614 28.5859 32.3318 28.5859 32.3318 28.5859C32.4366 28.5859 32.553 28.5859 32.6694 28.5974C32.9022 28.6319 32.9954 28.7355 32.9954 28.954Z" fill="#282828"/>
<path d="M32.9954 28.954C32.9954 29.1151 32.9488 29.2646 32.6461 29.3106C32.5996 29.3221 32.553 29.3221 32.4832 29.3221C32.4366 29.3221 32.39 29.3221 32.3551 29.3221C32.2969 29.3221 32.2503 29.3221 32.2038 29.3221H9.45759C9.39939 29.3221 9.34118 29.3221 9.28298 29.3221C9.23642 29.3221 9.18985 29.3221 9.14329 29.3221C9.08509 29.3221 9.03852 29.3221 9.0036 29.3106C8.71258 29.2646 8.66602 29.1496 8.66602 28.954C8.66602 28.7125 8.7475 28.6319 8.98032 28.5974C9.0618 28.5859 9.15493 28.5859 9.23642 28.5859H9.44595C13.2409 28.5859 17.0241 28.5859 20.819 28.5859C24.614 28.5859 32.3318 28.5859 32.3318 28.5859C32.4366 28.5859 32.553 28.5859 32.6694 28.5974C32.9022 28.6319 32.9954 28.7355 32.9954 28.954Z" fill="#282828"/>
</svg>
